PathFileType	4	(X/Y/Z)	C:\Users\Basilio\Documents\Thesis Gigler\squatting_fais\c3dfiles\075\SLS_back_pre2\markers_experimental.trc
DataRate	CameraRate	NumFrames	NumMarkers	Units	OrigDataRate	OrigDataStartFrame	OrigNumFrames
200.000000	200.000000	4	61	mm	200.000000	166	1329
Frame#	Time	FHD			LBHD			C7			T10			CLAV			LSHO			LUUPA			LMUPA			LDUPA			LLEP			LMEP			LRAD			LUL			LRFIN			RSHO			RUPA1			RMUPA			RDUPA			RLEP			RMEP			RRAD			RUL			RUFIN			LASI			RASI			USACR			LSACR			RSACR			LTHI1			LTHI2			LTHI3			LTHI4			LLFC			LMFC			LTIB1			LTIB2			LTIB3			LTIB4			LLMAL			LMMAL			LHEE			LMT1			LMT2			LMT5			RTHI			RTHI2			RTHI3			RTHI4			RLFC			RMFC			RTIB1			RTIB2			RTIB3			RTIB4			RLMAL			RMMAL			RHEE			RMT1			RMT2			RMT5			RBHD			
		X1	Y1	Z1	X2	Y2	Z2	X3	Y3	Z3	X4	Y4	Z4	X5	Y5	Z5	X6	Y6	Z6	X7	Y7	Z7	X8	Y8	Z8	X9	Y9	Z9	X10	Y10	Z10	X11	Y11	Z11	X12	Y12	Z12	X13	Y13	Z13	X14	Y14	Z14	X15	Y15	Z15	X16	Y16	Z16	X17	Y17	Z17	X18	Y18	Z18	X19	Y19	Z19	X20	Y20	Z20	X21	Y21	Z21	X22	Y22	Z22	X23	Y23	Z23	X24	Y24	Z24	X25	Y25	Z25	X26	Y26	Z26	X27	Y27	Z27	X28	Y28	Z28	X29	Y29	Z29	X30	Y30	Z30	X31	Y31	Z31	X32	Y32	Z32	X33	Y33	Z33	X34	Y34	Z34	X35	Y35	Z35	X36	Y36	Z36	X37	Y37	Z37	X38	Y38	Z38	X39	Y39	Z39	X40	Y40	Z40	X41	Y41	Z41	X42	Y42	Z42	X43	Y43	Z43	X44	Y44	Z44	X45	Y45	Z45	X46	Y46	Z46	X47	Y47	Z47	X48	Y48	Z48	X49	Y49	Z49	X50	Y50	Z50	X51	Y51	Z51	X52	Y52	Z52	X53	Y53	Z53	X54	Y54	Z54	X55	Y55	Z55	X56	Y56	Z56	X57	Y57	Z57	X58	Y58	Z58	X59	Y59	Z59	X60	Y60	Z60	X61	Y61	Z61	

167	0.8300000000000001	-291.8446655273438	1720.514282226563	-846.2836914062502	-425.488739013672	1596.514282226563	-924.0153808593752	-464.1851501464845	1478.22998046875	-864.5098266601565	-458.9198608398439	1153.082763671875	-864.312927246094	-318.1808776855469	1424.272094726563	-856.5938720703127	-344.3275146484376	1455.682861328125	-1015.418090820313	-293.1435546875001	1271.422607421875	-1138.510498046875	-250.0303649902344	1263.525512695313	-1115.588989257813	-253.4960327148438	1215.796997070313	-1154.059448242188	-199.0606231689454	1148.904663085938	-1150.428955078125	-266.5592651367188	1105.553833007813	-1100.959106445313	-96.8531188964844	1130.251831054688	-917.1145629882815	-46.47771453857423	1095.28857421875	-958.7449951171877	-35.37103652954102	1140.663208007813	-861.0312500000002	-361.0556945800782	1445.980590820313	-698.3163452148439	-325.0407714843751	1258.246215820313	-576.8889770507814	-279.2554321289063	1246.8720703125	-591.9623413085939	-291.8764953613282	1198.64990234375	-556.9874877929689	-247.7920074462891	1141.408813476563	-551.3436279296876	-289.5950012207032	1084.902221679688	-600.7064819335939	-92.00669097900392	1146.603881835938	-779.8377685546877	-61.05043029785158	1105.765502929688	-722.2235717773439	-13.99050045013428	1146.599853515625	-820.825134277344	-285.7101440429688	990.2571411132815	-989.2843017578127	-278.6461181640626	999.970642089844	-737.1712036132814	-444.092987060547	1054.357055664063	-864.3958740234377	-448.4232788085939	1022.374572753906	-890.4228515625002	-447.3243103027345	1024.436401367188	-833.421569824219	-320.2468566894532	744.6958618164064	-1061.378540039063	-285.6817932128907	667.9887084960939	-1061.973754882813	-238.2760620117188	675.4146728515626	-1046.015869140625	-309.3733520507813	613.2342529296876	-1052.609375	-312.5283203125001	504.8776245117189	-1046.081176757813	-272.5390625000001	489.7874450683595	-922.0168457031252	-265.4419555664063	378.1887207031251	-1013.119323730469	-328.1848754882813	345.1681518554688	-1064.189086914063	-288.8108520507813	334.4650878906251	-1043.864379882813	-301.0552978515626	255.0027313232422	-1015.344604492188	-390.6036987304689	125.6662292480469	-1035.57080078125	-362.9590148925782	135.5755615234375	-954.8228149414065	-449.8340148925782	99.62580871582034	-996.962829589844	-248.0909118652344	52.85201263427736	-962.968444824219	-242.7294616699219	55.02592086791994	-1011.461730957031	-281.0916442871094	42.68096923828126	-1065.278686523438	-330.3795166015626	791.948913574219	-671.5200195312501	-290.4144592285157	741.1119995117189	-677.6239013671876	-260.1320495605469	748.6294555664064	-690.2332763671876	-315.0596313476563	658.9071044921876	-687.7448730468751	-326.1086425781251	505.0884704589845	-721.1214599609376	-291.5337829589844	502.0889282226564	-846.5697021484377	-284.5950622558594	358.0555725097657	-791.7601318359377	-338.7759094238282	282.0633850097657	-735.1104125976564	-303.8448181152344	275.9386291503907	-768.3569335937502	-317.4845886230469	233.5852813720704	-805.502136230469	-391.4590148925782	117.6294479370117	-770.107116699219	-363.8994445800782	141.3667907714844	-850.7903442382815	-450.0145263671876	99.68424224853518	-826.0650634765627	-246.4671325683594	57.28630828857423	-836.7627563476565	-245.8923339843751	56.1573944091797	-794.1490478515627	-283.7786560058594	36.18328857421876	-742.0810546875001	nan	nan	nan	
168	0.835	-292.2964782714844	1720.466064453125	-846.0757446289065	-426.0886535644532	1596.368408203125	-923.6658325195315	-464.5887756347657	1478.00927734375	-864.272399902344	-459.2602539062501	1152.897827148438	-864.2095947265627	-318.6420593261719	1424.300415039063	-856.3227539062502	-344.7772216796876	1455.8037109375	-1014.952880859375	-292.3611450195313	1271.993896484375	-1137.46826171875	-248.9279479980469	1264.435180664063	-1114.88623046875	-251.829574584961	1216.945678710938	-1153.386108398438	-196.6490478515626	1150.401611328125	-1149.619873046875	-263.6593017578126	1106.700073242188	-1100.2294921875	-93.88418579101564	1132.25244140625	-916.2736816406252	-43.39051055908204	1098.091064453125	-957.9439697265627	-32.56783294677735	1143.669189453125	-860.4597778320315	-361.5694580078126	1445.993041992188	-698.1760253906251	-324.0831909179688	1258.796630859375	-576.5609741210939	-278.3298034667969	1247.948608398438	-591.7767944335939	-290.3236083984376	1199.52587890625	-556.6351928710939	-245.6253356933594	1142.80419921875	-551.0706787109376	-286.8066101074219	1085.860717773438	-600.3562011718751	-89.64652252197267	1149.381958007813	-779.4005126953127	-58.37870025634767	1108.646362304688	-721.7632446289064	-11.60976314544678	1150.0107421875	-820.0747070312502	-285.7864379882813	990.203796386719	-988.945495605469	-278.8235778808594	1000.031982421875	-736.7775268554689	-444.2638549804689	1054.203979492188	-864.2792968750002	-448.5098266601564	1022.261169433594	-890.268005371094	-447.5610961914064	1024.250366210938	-833.2639770507815	-320.1128540039063	744.6483764648439	-1061.035034179688	-285.4007568359376	667.9929809570314	-1061.903442382813	-238.0513458251954	675.3649291992189	-1045.788330078125	-309.0722045898438	613.2087402343751	-1052.540405273438	-312.2849121093751	504.7761840820314	-1046.047973632813	-272.3177490234376	489.6663818359376	-921.9870605468752	-265.4256591796876	378.0752258300782	-1013.177612304688	-328.0089416503907	345.1840820312501	-1064.210815429688	-288.6466674804688	334.4133300781251	-1043.876342773438	-301.5587158203126	254.9499053955079	-1015.859191894531	-390.6600036621095	125.6685180664063	-1035.68603515625	-362.9752502441407	135.5581665039063	-954.907897949219	-450.354461669922	99.95532226562503	-997.031433105469	-248.1956481933594	52.91115570068361	-963.0727539062502	-242.6953277587891	55.04718399047853	-1011.526000976563	-280.9521789550782	42.55220794677735	-1065.267456054688	-330.4358215332032	791.915954589844	-671.1651000976564	-290.5359497070313	741.1210327148439	-677.3765258789064	-260.1704406738282	748.6721801757814	-689.8710327148439	-315.0831604003907	658.9069824218751	-687.4846801757814	-326.0940551757813	505.1095581054689	-720.8637084960939	-291.3797607421876	502.1189575195314	-846.2575683593752	-284.5235290527344	358.0261840820313	-791.5992431640627	-338.7833251953126	282.0091552734376	-735.0012207031251	-303.4982604980469	275.7898254394532	-767.9765014648439	-317.4472351074219	233.6369171142579	-805.3371582031252	-391.4795227050782	117.6294937133789	-770.0397949218752	-363.9365844726563	141.4228820800782	-850.7128906250002	-450.0102844238282	99.68165588378909	-826.038757324219	-246.5325775146485	57.24320220947267	-836.7282714843752	-245.7959442138672	56.18122482299806	-794.0509033203127	-283.7662048339844	36.19105529785157	-742.0703125000001	nan	nan	nan	
169	0.84	-292.8495483398438	1720.385864257813	-845.8364257812502	-426.6769409179689	1596.107055664063	-923.2816162109377	-465.087127685547	1477.89404296875	-863.9829711914065	-459.6083068847657	1152.716064453125	-864.0142211914065	-318.9433898925782	1424.262939453125	-855.8995361328127	-345.0944519042969	1455.892944335938	-1014.432006835938	-291.5240478515626	1272.816284179688	-1137.289916992188	-247.9643859863282	1266.015014648438	-1114.8349609375	-249.7649536132813	1217.986328125	-1152.538696289063	-194.1596069335938	1152.115234375	-1148.91845703125	-260.8185119628907	1107.720825195313	-1099.40185546875	-92.86334228515626	1134.439086914063	-914.4480590820315	-40.51700592041016	1101.014892578125	-957.4231567382815	-29.52094459533692	1147.048461914063	-860.474548339844	-361.9332580566407	1445.901245117188	-697.9183959960939	-323.1802062988282	1259.371948242188	-576.2792968750001	-277.4354858398438	1249.213134765625	-591.4560546875001	-288.8851623535157	1200.408203125	-556.3247680664064	-243.4842529296876	1144.282470703125	-550.7055664062501	-284.0069274902344	1086.782348632813	-600.1046142578126	-87.1671829223633	1152.0283203125	-778.9155273437502	-55.58348464965822	1111.545166015625	-721.1029052734376	-8.835995674133303	1153.50146484375	-819.6336059570315	-285.1673889160157	989.9622192382815	-988.3169555664065	-279.0715942382813	1000.094543457031	-736.3343505859376	-444.3952026367189	1053.995971679688	-864.1003417968752	-448.6491088867189	1021.997741699219	-890.0684204101565	-447.7755737304689	1024.043212890625	-833.039489746094	-319.1431884765626	744.4255371093751	-1060.676391601563	-284.4217834472657	667.6797485351564	-1061.463012695313	-237.6555786132813	675.3226928710939	-1045.531372070313	-308.8645019531251	613.2821044921876	-1052.44970703125	-311.9313659667969	504.7844543457032	-1045.979125976563	-272.0613708496094	489.4912109375001	-921.8906860351565	-265.1764221191407	377.9593505859376	-1013.074890136719	-327.7248229980469	345.1463317871094	-1064.25341796875	-288.4426879882813	334.3308410644532	-1043.829467773438	-301.3650512695313	254.8911285400391	-1015.77783203125	-390.7080688476564	125.6408309936524	-1035.804321289063	-362.9247131347657	135.5494232177735	-954.9777832031252	-450.3736877441407	99.95132446289065	-997.1304931640627	-248.1421966552735	52.95669174194337	-963.0991210937502	-242.6443634033204	55.01070404052736	-1011.508728027344	-280.9609375000001	42.5111312866211	-1065.296997070313	-330.5283813476563	791.9466552734377	-670.7576293945314	-290.6253967285157	741.1171264648439	-677.1461181640626	-260.1644287109376	748.7222290039064	-689.5283203125001	-315.0228271484376	658.9291992187501	-687.1741943359376	-325.9767456054688	505.1092224121095	-720.5731201171876	-291.3385009765626	502.2082824707032	-845.9844970703127	-284.5130920410157	358.0258178710938	-791.4226074218752	-338.8124389648438	281.9854125976563	-734.7869262695314	-303.5486145019532	275.7958679199219	-767.8832397460939	-317.8311767578126	233.2603302001954	-805.096130371094	-391.468719482422	117.6096801757813	-770.0084228515627	-363.9103088378907	141.3744659423828	-850.6582641601565	-449.9791564941407	99.71390533447268	-826.045837402344	-246.4634246826172	57.17447662353517	-836.6912231445315	-245.7910919189454	56.23131561279298	-794.054382324219	-283.7762145996094	36.1708106994629	-742.0582885742189	nan	nan	nan	
170	0.845	-293.2363586425782	1720.2763671875	-845.6346435546877	-427.0823974609376	1596.140258789063	-922.9212646484377	-465.4732360839845	1477.811767578125	-863.7080688476565	-459.892547607422	1152.543212890625	-863.8349609375002	-319.4541320800782	1424.194213867188	-855.629333496094	-345.4936828613282	1455.987548828125	-1013.930419921875	-290.0526428222657	1273.45166015625	-1136.586059570313	-246.2616119384766	1266.982543945313	-1113.965698242188	-248.3919525146485	1219.149658203125	-1152.03759765625	-191.551498413086	1153.880981445313	-1148.077880859375	-257.9171752929688	1108.6953125	-1098.585571289063	-88.68513488769533	1137.43212890625	-915.008483886719	-37.13114166259766	1104.00146484375	-956.7847290039065	-27.04608345031739	1149.814453125	-858.848571777344	-362.5583801269532	1445.859008789063	-697.8021240234376	-322.3396301269532	1259.961181640625	-576.1495971679689	-276.4574584960938	1250.209838867188	-591.1077270507814	-287.3746948242188	1201.35302734375	-556.0930175781251	-241.3943939208985	1145.56787109375	-550.3669433593751	-281.2317504882813	1087.809814453125	-599.6842651367189	-84.60122680664064	1154.65380859375	-778.2200927734377	-52.85592269897462	1114.546020507813	-720.3838500976564	-6.023347377777101	1157.026977539063	-818.6614379882815	-285.1590881347657	989.8936157226565	-987.8942871093752	-279.3176269531251	1000.188293457031	-735.9580688476564	-444.5388488769532	1053.783081054688	-863.937438964844	-448.7702636718751	1021.753845214844	-889.8574218750002	-447.9626464843751	1023.846008300781	-832.7789306640627	-318.8246459960938	744.3985595703126	-1060.448120117188	-284.0653076171876	667.6530151367189	-1061.16357421875	-237.262924194336	675.3040771484376	-1045.200927734375	-308.4543762207032	613.2166748046876	-1052.232666015625	-311.4923706054688	504.7608337402345	-1045.950073242188	-271.7626037597657	489.3887023925782	-921.7886352539065	-264.8785705566407	377.9644165039063	-1013.068359375	-327.5041809082032	345.1756896972657	-1064.2060546875	-288.0772399902344	334.2924804687501	-1043.733276367188	-300.6583862304688	254.8205718994141	-1015.283874511719	-390.6660766601564	125.6812896728516	-1035.889526367188	-362.9647827148438	135.5746765136719	-955.0727539062502	-450.3816833496095	99.99861907958987	-997.1798095703127	-248.1626892089844	52.93756103515626	-963.120300292969	-242.6692657470704	54.95828247070314	-1011.5322265625	-280.9896545410157	42.45500564575196	-1065.3466796875	-330.5974731445313	791.967956542969	-670.3913574218751	-290.6600036621094	741.1123046875001	-676.8002929687501	-260.2361145019532	748.6846313476564	-689.0726318359376	-315.0100402832032	658.9458618164064	-686.8628540039064	-325.9438781738282	505.0834350585939	-720.3186645507814	-291.3572692871094	502.1482238769532	-845.5841064453127	-284.5011901855469	357.9497680664063	-791.201599121094	-338.8463439941407	281.9150390625001	-734.6822509765626	-303.4489746093751	275.6993713378907	-767.6872558593751	-317.8104858398438	233.2195892333985	-804.9613037109377	-391.5076599121095	117.6324844360352	-769.9350585937502	-363.7864379882813	141.3789215087891	-850.5671386718752	-449.9519042968751	99.69895172119143	-826.0371704101565	-246.5617370605469	57.16931533813478	-836.6550292968752	-245.8650512695313	56.23172760009767	-793.9733886718752	-283.8039550781251	36.15164947509766	-742.0088500976564	nan	nan	nan	
